<?xml version="1.0" encoding="UTF-8" standalone="no"?><!DOCTYPE svg PUBLIC "-//W3C//DTD SVG 1.1//EN" "http://www.w3.org/Graphics/SVG/1.1/DTD/svg11.dtd"><svg width="100%" height="100%" viewBox="0 0 31 31" version="1.1" xmlns="http://www.w3.org/2000/svg" xmlns:xlink="http://www.w3.org/1999/xlink" xml:space="preserve" xmlns:serif="http://www.serif.com/" style="fill-rule:evenodd;clip-rule:evenodd;stroke-linecap:round;stroke-linejoin:round;stroke-miterlimit:1.5;"><g id="Layer1"><path d="M14.605,30.436l1.51,-0l0.252,-0.569l0.504,-0l-0,0.853l3.021,-0l0,-1.422l1.008,-0l-0,-2.276l-1.763,-1.422l0,-1.138l9.82,2.276l1.763,-0l-0,-2.56l-9.065,-5.974l-1.007,-1.422l-0.504,-1.138l2.266,0.569l0,-0.569l-3.777,-3.128l0,-0.112c0,-0.278 -0.163,-0.531 -0.417,-0.646c-0.366,-0.165 -0.842,-0.38 -0.842,-0.38l-0.251,-8.249c-0.416,-1.869 -0.964,-3.103 -1.763,-3.129c-0.799,0.026 -1.347,1.26 -1.763,3.129l-0.251,8.249c-0,-0 -0.476,0.215 -0.842,0.38c-0.254,0.115 -0.417,0.368 -0.417,0.646c-0,0.066 -0,0.112 -0,0.112l-3.777,3.128l-0,0.569l2.266,-0.569l-0.504,1.138l-1.007,1.422l-9.065,5.974l0,2.56l1.763,-0l9.82,-2.276l-0,1.138l-1.763,1.422l0,2.276l1.008,-0l-0,1.422l3.021,-0l0,-0.853l0.504,-0l0.252,0.569Z" style="fill:#800;"/><clipPath id="_clip1"><path d="M14.605,30.436l1.51,-0l0.252,-0.569l0.504,-0l-0,0.853l3.021,-0l0,-1.422l1.008,-0l-0,-2.276l-1.763,-1.422l0,-1.138l9.82,2.276l1.763,-0l-0,-2.56l-9.065,-5.974l-1.007,-1.422l-0.504,-1.138l2.266,0.569l0,-0.569l-3.777,-3.128l0,-0.112c0,-0.278 -0.163,-0.531 -0.417,-0.646c-0.366,-0.165 -0.842,-0.38 -0.842,-0.38l-0.251,-8.249c-0.416,-1.869 -0.964,-3.103 -1.763,-3.129c-0.799,0.026 -1.347,1.26 -1.763,3.129l-0.251,8.249c-0,-0 -0.476,0.215 -0.842,0.38c-0.254,0.115 -0.417,0.368 -0.417,0.646c-0,0.066 -0,0.112 -0,0.112l-3.777,3.128l-0,0.569l2.266,-0.569l-0.504,1.138l-1.007,1.422l-9.065,5.974l0,2.56l1.763,-0l9.82,-2.276l-0,1.138l-1.763,1.422l0,2.276l1.008,-0l-0,1.422l3.021,-0l0,-0.853l0.504,-0l0.252,0.569Z"/></clipPath><g clip-path="url(#_clip1)"><rect x="16.871" y="22.471" width="1.259" height="0.284" style="fill:#727272;"/><path d="M18.23,22.371l-1.459,0l-0,0.485l1.459,-0l-0,-0.485Zm-0.1,0.1l-1.259,0l-0,0.285l1.259,-0l-0,-0.285Z"/><rect x="16.871" y="21.333" width="1.259" height="0.284" style="fill:#727272;"/><path d="M18.23,21.233l-1.459,0l-0,0.485l1.459,-0l-0,-0.485Zm-0.1,0.1l-1.259,0l-0,0.285l1.259,-0l-0,-0.285Z"/><rect x="16.871" y="20.196" width="1.259" height="0.284" style="fill:#727272;"/><path d="M18.23,20.096l-1.459,-0l-0,0.484l1.459,0l-0,-0.484Zm-0.1,0.1l-1.259,-0l-0,0.284l1.259,0l-0,-0.284Z"/><rect x="12.59" y="22.471" width="1.259" height="0.284" style="fill:#727272;"/><path d="M13.949,22.371l-1.459,0l0,0.485l1.459,-0l0,-0.485Zm-0.1,0.1l-1.259,0l0,0.285l1.259,-0l0,-0.285Z"/><rect x="12.59" y="21.333" width="1.259" height="0.284" style="fill:#727272;"/><path d="M13.949,21.233l-1.459,0l0,0.485l1.459,-0l0,-0.485Zm-0.1,0.1l-1.259,0l0,0.285l1.259,-0l0,-0.285Z"/><rect x="12.59" y="20.196" width="1.259" height="0.284" style="fill:#727272;"/><path d="M13.949,20.096l-1.459,-0l0,0.484l1.459,0l0,-0.484Zm-0.1,0.1l-1.259,-0l0,0.284l1.259,0l0,-0.284Z"/><path d="M19.137,24.462l-3.777,2.845l-3.777,-2.845" style="fill:#3b3b3b;stroke:#000;stroke-width:0.1px;"/><path d="M10.576,15.644l-0.085,1.138l4.869,-2.275l4.91,2.275l-0.126,-1.138" style="fill:none;stroke:#000;stroke-width:0.3px;"/></g><path d="M14.605,30.436l1.51,-0l0.252,-0.569l0.504,-0l-0,0.853l3.021,-0l0,-1.422l1.008,-0l-0,-2.276l-1.763,-1.422l0,-1.138l9.82,2.276l1.763,-0l0,-2.56l-9.065,-5.974l-1.007,-1.422l-0.504,-1.138l2.266,0.569l0,-0.569l-3.777,-3.128l0,-0.112c0,-0.278 -0.163,-0.531 -0.417,-0.646c-0.366,-0.165 -0.842,-0.38 -0.842,-0.38l-0.251,-8.249c-0.416,-1.869 -0.964,-3.103 -1.763,-3.129c-0.799,0.026 -1.347,1.26 -1.763,3.129l-0.251,8.249c-0,-0 -0.476,0.215 -0.842,0.38c-0.254,0.115 -0.417,0.368 -0.417,0.646c-0,0.066 -0,0.112 -0,0.112l-3.777,3.128l-0,0.569l2.266,-0.569l-0.504,1.138l-1.007,1.422l-9.065,5.974l0,2.56l1.763,-0l9.82,-2.276l-0,1.138l-1.763,1.422l0,2.276l1.008,-0l-0,1.422l3.021,-0l0,-0.853l0.504,-0l0.252,0.569Zm0.755,-30.336c-0.29,0.011 -0.539,0.204 -0.764,0.531c-0.364,0.532 -0.654,1.409 -0.899,2.511l-0.251,8.239c-0.002,0.038 -0.024,0.072 -0.059,0.088c-0,-0 -0.476,0.215 -0.842,0.38c-0.218,0.099 -0.358,0.316 -0.358,0.555c-0,0.066 -0,0.112 -0,0.112c-0,0.029 -0.014,0.058 -0.037,0.077l-3.74,3.098l-0,0.394l2.141,-0.538c0.037,-0.009 0.077,0.004 0.101,0.033c0.025,0.029 0.031,0.07 0.015,0.105l-0.503,1.138c-0.003,0.006 -0.006,0.012 -0.01,0.017l-1.007,1.422c-0.008,0.01 -0.017,0.019 -0.027,0.026l-9.02,5.944l-0,2.406l1.651,-0l9.809,-2.273c0.03,-0.007 0.061,-0 0.085,0.019c0.024,0.019 0.038,0.048 0.038,0.078l-0,1.138c-0,0.03 -0.014,0.059 -0.037,0.078l-1.726,1.392l0,2.128l0.908,-0c0.055,-0 0.1,0.045 0.1,0.1l-0,1.322l2.821,-0l0,-0.753c0,-0.056 0.045,-0.1 0.1,-0.1l0.504,-0c0.039,-0 0.075,0.023 0.091,0.059l0.226,0.51l1.38,-0l0.226,-0.51c0.016,-0.036 0.052,-0.059 0.091,-0.059l0.504,-0c0.055,-0 0.1,0.044 0.1,0.1l-0,0.753l2.821,-0l0,-1.322c0,-0.055 0.045,-0.1 0.1,-0.1l0.908,-0l-0,-2.128l-1.726,-1.392c-0.023,-0.019 -0.037,-0.048 -0.037,-0.078l0,-1.138c0,-0.03 0.014,-0.059 0.038,-0.078c0.024,-0.019 0.055,-0.026 0.085,-0.019l9.809,2.273l1.651,-0l-0,-2.406l-9.02,-5.944c-0.01,-0.007 -0.019,-0.016 -0.027,-0.026l-1.007,-1.422c-0.004,-0.005 -0.007,-0.011 -0.01,-0.017l-0.503,-1.138c-0.016,-0.035 -0.01,-0.076 0.015,-0.105c0.024,-0.029 0.064,-0.042 0.101,-0.033l2.141,0.538l0,-0.394l-3.74,-3.098c-0.023,-0.019 -0.037,-0.048 -0.037,-0.077l0,-0.112c0,-0.239 -0.14,-0.456 -0.358,-0.555c-0.366,-0.165 -0.842,-0.38 -0.842,-0.38c-0.035,-0.016 -0.057,-0.05 -0.059,-0.088l-0.251,-8.239c-0.245,-1.102 -0.535,-1.979 -0.899,-2.511c-0.225,-0.327 -0.474,-0.52 -0.764,-0.531Z"/><path d="M15.108,7.396c-1.208,2.37 -0.797,4.74 0.252,7.111c1.049,-2.371 1.46,-4.741 0.252,-7.111c-0.168,-0.189 -0.336,-0.237 -0.504,-0Z" style="fill:#5fcdff;"/><path d="M15.108,7.396c-1.208,2.37 -0.797,4.74 0.252,7.111c1.049,-2.371 1.46,-4.741 0.252,-7.111c-0.168,-0.189 -0.336,-0.237 -0.504,-0Zm0.421,0.057c-0.06,-0.066 -0.116,-0.113 -0.176,-0.117c-0.055,-0.004 -0.104,0.036 -0.159,0.112c-1.153,2.269 -0.801,4.538 0.166,6.808c0.966,-2.268 1.319,-4.536 0.169,-6.803Z"/></g></svg>